<?xml version="1.0" encoding="UTF-8" standalone="no"?><svg xmlns="http://www.w3.org/2000/svg" xml:space="preserve" id="svg2" version="1.1" viewBox="0 0 3940.3684 873.46027"><path id="path1" fill="#ff28ff" d="M19.843562 306.24538C75.321244 128.77242 240.98545 0 436.69405 0c195.70764 0 361.37377 128.77242 416.85241 306.24538H503.14237v161.54385h-3.00223l-88.45983-137.64776c-10.75798-17.74729-21.52077-23.82632-43.04009-23.82632H19.843562ZM772.4238 369.75835V627.7925h-86.98759V369.75835h-99.49686V627.7925h-58.06229c-21.52077 0-31.79281-6.07662-43.04154-23.82536L372.27368 435.50567h-1.81673v192.359H285.913V369.82812h-99.07732v258.03655H98.378728V369.82812H5.1004172C1.7469687 391.62794 0 413.98683 0 436.76622c0 241.19329 195.49931 436.69405 436.69405 436.69405 241.19811 0 436.69405-195.50076 436.69405-436.69405 0-22.77939-1.74649-45.13828-5.09994-66.9381H772.4238Z"/><path id="path2" fill="#101e28" d="M1438.2974 306.24875h-131.357v321.54856h70.7111v-96.42247h53.7273c72.1112 0 129.9618-38.57187 129.9618-112.98282v-.90837c0-65.679-46.395-111.16513-123.1105-111.16513Zm51.4276 113.47069c0 27.53052-20.6836 48.14196-56.0368 48.14196h-56.0367v-98.10016h54.6367c35.3579 0 57.4368 17.32823 57.4368 49.04984Zm739.4474-6.42832v-.90837c0-66.16782-45.4905-106.134-121.2293-106.134H1960.935v321.54856h70.7111V524.87483h55.546l58.5531 87.47834c6.4278 9.64176 17.2579 15.44414 28.8579 15.44414h64.1389l-78.5342-114.80148c40.8765-15.16028 68.8924-47.79025 68.8924-99.63495Zm-71.6204 3.70322c0 27.10905-19.7743 44.43921-54.2181 44.43921h-71.6204v-91.67231h70.2925c34.4438 0 55.546 16.00081 55.546 46.32474Zm98.3085-47.2331h97.8177v258.03607h70.7111V369.76124h74.6948c12.7835 0 23.1278-10.34084 23.1278-23.12725v-40.31547h-266.4188v63.51296Zm429.9871 65.60971c-55.4786-14.18407-69.2436-21.1017-69.2436-42.20245v-.90836c0-15.58127 14.1836-27.94862 41.295-27.94862 21.3091 0 43.2532 7.40646 65.4716 20.19286 10.479 6.00879 23.7532 3.0744 30.5997-6.84738l24.1092-34.93553c-32.5626-26.13188-72.4576-40.80478-119.2712-40.80478-65.6111 0-112.3525 38.49875-112.3525 96.77129v.90837c0 63.79057 41.7136 81.61148 106.4154 98.16703 53.66 13.76501 64.6971 22.92084 64.6971 40.80911v.90452c0 18.79759-17.3975 30.25801-46.3228 30.25801s-55.1275-9.85346-79.025-26.27429c-9.8535-6.77907-23.2673-5.03258-30.9508 4.12325l-27.6696 33.12072c38.4997 34.37645 87.6179 51.35539 136.2453 51.35539 69.2436 0 117.8759-35.77653 117.8759-99.56903v-.90933c0-55.96458-36.6811-79.37137-101.8015-96.3503Zm-1534.5082 0c-55.4786-14.18407-69.2436-21.1017-69.2436-42.20245v-.90836c0-15.58127 14.1836-27.94862 41.295-27.94862 21.3091 0 43.2484 7.40646 65.4668 20.19286 10.4116 6.00879 23.758 3.0744 30.6045-6.84738l24.1044-34.93553c-32.5578-26.13188-72.4576-40.80478-119.2712-40.80478-65.6063 0-112.3525 38.49875-112.3525 96.77129v.90837c0 63.79057 41.7136 81.61148 106.4154 98.16703 53.66 13.76501 64.7019 22.92084 64.7019 40.80911v.90452c0 18.79759-17.3976 30.25801-46.3277 30.25801-28.9253 0-55.1274-9.85346-79.0201-26.27429-9.8535-6.77907-23.2673-5.03258-30.9557 4.12325l-27.66951 33.12072c38.49971 34.37645 87.61791 51.35539 136.25011 51.35539 69.2436 0 117.871-35.77653 117.871-99.56903v-.90933c0-55.96458-36.681-79.37137-101.8014-96.3503Zm598.6555-133.45426c-91.183 0-165.108 73.92358-165.108 165.10755 0 91.17819 73.925 165.10321 165.108 165.10321s165.1032-73.92502 165.1032-165.10321c0-91.18397-73.9202-165.10755-165.1032-165.10755Zm0 263.48339c-54.2902 0-98.3084-44.01822-98.3084-98.30849 0-54.2893 44.0182-98.30848 98.3084-98.30848 54.2903 0 98.3085 44.01918 98.3085 98.30848 0 54.29027-44.0182 98.30849-98.3085 98.30849Zm1382.5398-63.44128V306.31852h-69.8692c-13.9045 0-27.1114 6.28831-35.8438 17.18822l-120.041 149.2429c-6.5674 8.17914-10.1325 18.30684-10.1325 28.79058v57.43201h168.88v68.89244h67.0065v-68.89244h42.902V501.9588Zm-67.0065 0h-104.0387l104.0387-129.33246Z"/><path id="path34" d="M3657.479 629.63813V307.42214h111.6549c48.8124 0 92.3596 15.8434 123.9625 46.23086 31.1854 29.6861 47.2721 69.08541 47.2721 114.87714 0 45.28511-16.1456 84.68015-47.4321 114.47686-31.9147 30.68724-75.9279 46.63113-124.5024 46.63113Zm36.264-33.90213h75.4914c40.2002 0 73.9692-13.79872 96.764-36.305 23.7735-23.4764 36.6248-54.61631 36.6248-90.90086 0-36.51782-13.7812-67.893-37.4248-91.24114-21.9132-21.6393-56.1712-36.26435-96.0645-36.26435h-75.3909Z" style="fill:#101e28"/><path id="text33" d="M3307.804 629.63813V307.42214h36.3644V450.5781h185.9644V307.42214h36.3643v322.21599h-36.3643v-144.9972h-185.9644v144.9972Z" style="fill:#101e28"/></svg>