<?xml version="1.0" encoding="UTF-8" standalone="no"?><svg xmlns="http://www.w3.org/2000/svg" id="svg2" version="1.1" viewBox="0 0 3972.1821 873.46027"><path id="path1" fill="#ff28ff" d="M19.8433 306.24622C75.321408 128.77314 240.98646 0 436.69598 0c195.71 0 361.37553 128.77314 416.85075 306.24622H503.14501V467.7902h-3.00686l-88.45437-137.64793c-10.76213-17.74764-21.52425-23.82629-43.04273-23.82629H19.8433Zm752.58577 63.5129v258.0341h-86.99184v-258.0341h-99.49554v258.0341h-58.06352c-21.51944 0-31.79085-6.07624-43.03888-23.82389l-112.565-168.46118h-1.81662v192.35724h-84.54403V369.82887h-99.07746v258.03652H98.378914V369.82887H5.1005836C1.7468609 391.62879 0 413.98775 0 436.76429c0 241.19766 195.50024 436.69598 436.69598 436.69598 241.19766 0 436.69597-195.49832 436.69597-436.69598 0-22.77654-1.74638-45.1355-5.09962-66.93542h-95.86326Z"/><path id="path2" fill="#101e28" d="M1438.3097 306.24766h-131.3585v321.54556h70.7067v-96.42133h53.7337c72.1067 0 129.9585-38.56949 129.9585-112.98067v-.90831c0-65.67927-46.3921-111.16549-123.1125-111.16549Zm51.4244 113.47091c0 27.52881-20.6823 48.14379-56.0381 48.14379h-56.0381v-98.1018h54.6429c35.3558 0 57.4333 17.32813 57.4333 49.0497Zm739.4499-6.42793v-.90831c0-66.16855-45.4876-106.13467-121.2266-106.13467H1960.944v321.54556h70.7115V524.87709h55.5474l58.5542 87.47775c6.4275 9.64117 17.2569 15.43838 28.8562 15.43838h64.1397l-78.5341-114.7944c40.8739-15.16416 68.893-47.79211 68.893-99.63842Zm-71.6208 3.703c0 27.11218-19.773 44.43646-54.2195 44.43646h-71.616v-91.66954h70.2881c34.4465 0 55.5474 16.00078 55.5474 46.32477Zm98.3073-47.23308h97.8213v258.03266h70.7115V369.76056h74.6902c12.7876 0 23.1311-10.34069 23.1311-23.12726v-40.31588h-266.4215v63.5129Zm429.9894 65.60952c-55.4752-14.18417-69.2393-21.10137-69.2393-42.20274v-.90831c0-15.58127 14.1827-27.94833 41.2925-27.94833 21.3125 0 43.2505 7.40648 65.4676 20.19258 10.483 6.00937 23.7565 3.07468 30.6073-6.84697l24.1029-34.93577c-32.5606-26.13219-72.4579-40.80515-119.2686-40.80515-65.6119 0-112.3552 38.49925-112.3552 96.77205v.90831c0 63.79242 41.7159 81.60741 106.4137 98.17156 53.6615 13.76417 64.7026 22.91462 64.7026 40.80178v.90928c0 18.79643-17.3964 30.25615-46.3247 30.25615-28.9284 0-55.1289-9.85286-79.0249-26.27268-9.8529-6.77864-23.2658-5.03226-30.9538 4.123l-27.6678 33.11867c38.4973 34.37434 87.6173 51.35223 136.2465 51.35223 69.2442 0 117.8734-35.77433 117.8734-99.56289v-.90928c0-55.96594-36.6788-79.37608-101.8-96.35349Zm-1534.5145 0c-55.4752-14.18417-69.2394-21.10137-69.2394-42.20274v-.90831c0-15.58127 14.1827-27.94833 41.2925-27.94833 21.3126 0 43.2506 7.40648 65.4676 20.19258 10.4109 6.00937 23.7565 3.07468 30.6073-6.84697l24.103-34.93577c-32.5606-26.13219-72.458-40.80515-119.2686-40.80515-65.612 0-112.3553 38.49925-112.3553 96.77205v.90831c0 63.79242 41.7159 81.60741 106.4137 98.17156 53.6615 13.76417 64.7027 22.91462 64.7027 40.80178v.90928c0 18.79643-17.3965 30.25615-46.3248 30.25615-28.9283 0-55.1288-9.85286-79.0249-26.27268-9.8528-6.77864-23.2658-5.03226-30.9537 4.123l-27.66788 33.11867c38.49738 34.37434 87.61728 51.35223 136.24648 51.35223 69.2442 0 117.8734-35.77433 117.8734-99.56289v-.90928c0-55.96594-36.6788-79.37608-101.8-96.35349Zm598.657-133.45469c-91.1822 0-165.1026 73.92382-165.1026 165.10505 0 91.1822 73.9204 165.10746 165.1026 165.10746s165.1075-73.92526 165.1075-165.10746c0-91.18123-73.9253-165.10505-165.1075-165.10505Zm0 263.48445c-54.2869 0-98.3072-44.02032-98.3072-98.30723 0-54.29125 44.0203-98.31012 98.3072-98.31012 54.2918 0 98.3121 44.01887 98.3121 98.31012 0 54.28691-44.0203 98.30723-98.3121 98.30723ZM3089.3699 436.7691l81.0503-77.34923v-53.10245h-216.5318v37.24167c0 12.7861 10.3387 23.12726 23.1263 23.12726h102.7092l-76.4366 76.85659 10.969 44.85742h29.2747c39.3393 0 62.6773 14.67344 62.6773 40.73924v.90447c0 23.75653-18.7965 38.92069-45.3482 38.92069-26.5517 0-45.0643-8.45767-62.8841-24.03557-8.8714-7.68792-22.217-7.05769-30.742 1.04879l-32.2816 30.74205c27.461 32.48844 67.2861 55.40787 124.9311 55.40787 71.4091 0 115.3573-44.3667 115.3573-104.80684v-.90927c0-59.4587-42.553-82.37813-86.0826-89.71437Z"/><path id="path34" d="M3689.1611 629.43314v-322.011h111.8278c48.8006 0 92.3373 15.83332 123.9326 46.20145 31.1779 29.66721 47.2606 69.04146 47.2606 114.80405 0 45.2563-16.1417 84.62628-47.4206 114.40403-31.907 30.66772-75.4092 46.60147-123.972 46.60147Zm36.8555-33.88056h75.0728c40.1905 0 73.9513-13.78994 96.7406-36.28191 23.7678-23.46146 36.616-54.58156 36.616-90.84303 0-36.49458-13.7778-67.8498-37.4158-91.18309-21.9078-21.62553-56.1575-36.24128-96.0413-36.24128h-74.9723Z" style="fill:#101e28"/><path id="text33" d="M3339.917 629.43314v-322.011h36.3299v143.06488h185.7881V307.42214h36.3299v322.011h-36.3299V484.52818h-185.7881v144.90496Z" style="fill:#101e28"/></svg>