<?xml version="1.0" encoding="UTF-8" standalone="no"?><svg xmlns="http://www.w3.org/2000/svg" id="svg2" version="1.1" viewBox="0 0 3928.8994 873.46027"><path id="path1" fill="#ff28ff" d="M19.843232 306.24553C75.321321 128.77258 240.9859 0 436.69718 0c195.70753 0 361.37211 128.77258 416.85114 306.24553h-350.4074v161.54369h-3.00102l-88.45744-137.64791c-10.7634-17.7472-21.52212-23.82602-43.04189-23.82602H19.843232Zm752.583978 63.51295v258.03506h-86.99204V369.75848H585.9381v258.03506h-58.06337c-21.51743 0-31.78924-6.08163-43.03955-23.82555L372.27362 435.50745h-1.81652v192.35631h-84.54395V369.82824h-99.07758v258.03552H98.378592V369.82824H5.1007931C1.74677 391.62799 0 413.98674 0 436.7631c0 241.19565 195.49966 436.69718 436.69718 436.69718 241.19097 0 436.6925-195.50153 436.6925-436.69718 0-22.77636-1.7463-45.13511-5.09845-66.93486h-95.86402Z"/><path id="path2" fill="#101e28" d="M1438.2926 306.24413H1306.936v321.54941h70.7089v-96.42583h53.7327c72.104 0 129.9614-38.56845 129.9614-112.98011v-.90873c0-65.67874-46.3964-111.16498-123.1167-111.16498Zm51.4246 113.47076c0 27.5307-20.6794 48.13987-56.0362 48.13987h-56.0361v-98.09768h54.6409c35.3521 0 57.4314 17.32818 57.4314 49.04954Zm739.4488-6.42808v-.90826c0-66.16799-45.4881-106.13442-121.2252-106.13442h-147.0124v321.54941h70.7135V524.86941h55.5446l58.5549 87.47895c6.4281 9.64446 17.2571 15.44518 28.8538 15.44518h64.145l-78.5368-114.80179c40.8719-15.15959 68.8923-47.79155 68.8923-99.63518Zm-71.6171 3.70328c0 27.10935-19.7758 44.4366-54.2197 44.4366h-71.6217v-91.66961h70.2921c34.4485 0 55.5493 16.00043 55.5493 46.32475Zm98.3079-47.23301h97.821v258.03646h70.7088V369.75708h74.693c12.7859 0 23.128-10.34111 23.128-23.1275v-40.31569h-266.4211v63.51295Zm429.9882 65.60898c-55.4791-14.18391-69.2435-21.10123-69.2435-42.20198v-.90827c0-15.58141 14.1858-27.94879 41.2933-27.94879 21.3114 0 43.2502 7.40657 65.4699 20.19296 10.4825 6.00906 23.7553 3.07406 30.6048-6.84756l24.1064-34.9354c-32.5617-26.13179-72.4598-40.80494-119.2729-40.80494-65.6104 0-112.3532 38.49917-112.3532 96.77181v.90826c0 63.79152 41.7146 81.61035 106.4167 98.16979 53.6579 13.76441 64.6975 22.91728 64.6975 40.80166v.90826c0 18.79733-17.3975 30.25831-46.3215 30.25831-28.9287 0-55.1326-9.85513-79.0283-26.27412-9.8505-6.77452-23.2638-5.02822-30.9513 4.12465l-27.6692 33.11887c38.4982 34.37358 87.6194 51.35438 136.249 51.35438 69.2434 0 117.873-35.77344 117.873-99.56729v-.90827c0-55.96593-36.6817-79.3748-101.8005-96.35185Zm-1534.5124 0c-55.4791-14.18391-69.2435-21.10123-69.2435-42.20198v-.90827c0-15.58141 14.1858-27.94879 41.2933-27.94879 21.3114 0 43.2502 7.40657 65.4699 20.19296 10.4123 6.00906 23.7553 3.07406 30.6048-6.84756l24.1064-34.9354c-32.5617-26.13179-72.4551-40.80494-119.2729-40.80494-65.6057 0-112.3532 38.49917-112.3532 96.77181v.90826c0 63.79152 41.7146 81.61035 106.4168 98.16979 53.6625 13.76441 64.7021 22.91728 64.7021 40.80166v.90826c0 18.79733-17.4022 30.25831-46.3262 30.25831-28.9287 0-55.1279-9.85513-79.0237-26.27412-9.8551-6.77452-23.2684-5.02822-30.9558 4.12465l-27.66933 33.11887c38.50293 34.37358 87.61943 51.35438 136.24903 51.35438 69.2434 0 117.873-35.77344 117.873-99.56729v-.90827c0-55.96593-36.6817-79.3748-101.8005-96.35185Zm598.6585-133.45398c-91.1823 0-165.1075 73.92381-165.1075 165.10464 0 91.18224 73.9252 165.10746 165.1075 165.10746 91.1775 0 165.1027-73.92522 165.1027-165.10746 0-91.18083-73.9252-165.10464-165.1027-165.10464Zm0 263.48277c-54.2899 0-98.3126-44.01804-98.3126-98.3079 0-54.28939 44.0227-98.3079 98.3126-98.3079 54.2898 0 98.3078 44.01851 98.3078 98.3079 0 54.28986-44.018 98.3079-98.3078 98.3079Zm1292.1275-259.08096-91.6738 27.38978 8.9469 35.2149c3.1414 12.29715 15.5809 19.8437 27.9455 16.76918l33.3295-8.17485v250.34618h69.3137V306.31389Z"/><path id="path34" d="M3645.9093 629.52489V307.42214h111.8156c48.7953 0 92.3272 15.83783 123.9189 46.21461 31.1745 29.67567 47.2555 69.06114 47.2555 114.83677 0 45.26919-16.1399 84.65039-47.4154 114.43663-31.9035 30.67645-75.401 46.61474-123.9584 46.61474Zm36.8515-33.89021h75.0646c40.1861 0 73.9432-13.79388 96.73-36.29225 23.7651-23.46815 36.612-54.59711 36.612-90.86891 0-36.50499-13.7765-67.86914-37.4117-91.20907-21.9055-21.63169-56.1515-36.25161-96.0308-36.25161h-74.9641Z" style="fill:#101e28"/><path id="text33" d="M3296.1 629.63813V307.42214h36.45V450.5781h185.7928V307.42214h36.3502v322.21599h-36.3502v-144.9972H3332.55v144.9972Z" style="fill:#101e28"/></svg>