<?xml version="1.0" encoding="UTF-8" standalone="no"?><svg xmlns="http://www.w3.org/2000/svg" id="svg2" version="1.1" viewBox="0 0 3974.4871 873.46027"><path id="path1" fill="#ff28ff" d="M19.843662 306.24639C75.32114 128.77302 240.98666 0 436.69624 0c195.70862 0 361.37558 128.77302 416.8545 306.24639H503.14489v161.5408h-3.00705l-88.45547-137.64507c-10.75803-17.74691-21.52088-23.82597-43.04079-23.82597H19.843662Zm752.584008 63.5128v258.03689h-86.98802V369.75919h-99.49737v258.03689H527.8797c-21.52087 0-31.79297-6.08146-43.04175-23.82548L372.27458 435.50828h-1.81626v192.35516h-84.54437v-258.034h-99.07782v258.034H98.37874v-258.034H5.1004427C1.7469774 391.62937 0 413.98789 0 436.76403c0 241.19931 195.50029 436.69624 436.69624 436.69624 241.1945 0 436.69624-195.49693 436.69624-436.69624 0-22.77614-1.7465-45.13466-5.09997-66.93459h-95.86484Z"/><path id="path2" fill="#101e28" d="M1438.3046 306.24735h-131.3577v321.54873h70.7115v-96.42295h53.7276c72.1067 0 129.9624-38.56726 129.9624-112.98243v-.90838c0-65.67884-46.3952-111.1652-123.1111-111.1652Zm51.4279 113.47078c0 27.52969-20.6838 48.14123-56.0371 48.14123h-56.037v-98.0992h54.6369c35.3534 0 57.4372 17.32832 57.4372 49.0496Zm739.4463-6.42788v-.90837c0-66.16815-45.4859-106.13453-121.2252-106.13453h-147.0088v321.54873h70.7067v-102.923h55.5511l58.5485 87.47878c6.4279 9.64181 17.2581 15.44422 28.8581 15.44422h64.144l-78.5394-114.79725c40.8767-15.16517 68.8976-47.7953 68.8976-99.63881Zm-71.616 3.70325c0 27.10774-19.7744 44.43798-54.2232 44.43798h-71.6159v-91.67132h70.288c34.4488 0 55.5511 16.00089 55.5511 46.32497Zm98.309-47.23334h97.8182v258.03592h70.7114V369.76016h74.6904c12.7884 0 23.1279-10.3409 23.1279-23.12737v-40.31567h-266.4201v63.5128Zm429.9845 65.60956c-55.4741-14.18415-69.2392-21.10133-69.2392-42.20266v-.90838c0-15.58134 14.1836-27.94827 41.2952-27.94827 21.3092 0 43.2487 7.40601 65.4672 20.19248 10.479 6.0093 23.7581 3.07441 30.6046-6.84693l24.1045-34.9357c-32.558-26.13201-72.458-40.80499-119.2717-40.80499-65.6067 0-112.3532 38.49894-112.3532 96.77177v.90837c0 63.79427 41.7139 81.61045 106.416 98.17089 53.6603 13.76509 64.7022 22.91615 64.7022 40.80451v.90933c0 18.79288-17.3976 30.25336-46.3279 30.25336-28.9254 0-55.1277-9.85351-79.0253-26.27443-9.8487-6.77428-23.2626-5.02779-30.951 4.12327l-27.6697 33.12089c38.4999 34.37662 87.6183 51.35565 136.2507 51.35565 69.2441 0 117.8717-35.77671 117.8717-99.56953v-.90453c0-55.96967-36.6812-79.37657-101.802-96.35511Zm-1534.5111 0c-55.4789-14.18415-69.244-21.10133-69.244-42.20266v-.90838c0-15.58134 14.1837-27.94827 41.2952-27.94827 21.3092 0 43.2487 7.40601 65.4672 20.19248 10.4116 6.0093 23.7581 3.07441 30.6046-6.84693l24.1045-34.9357c-32.558-26.13201-72.4579-40.80499-119.2717-40.80499-65.6067 0-112.3532 38.49894-112.3532 96.77177v.90837c0 63.79427 41.7139 81.61045 106.416 98.17089 53.6603 13.76509 64.7022 22.91615 64.7022 40.80451v.90933c0 18.79288-17.3976 30.25336-46.3279 30.25336-28.9254 0-55.1277-9.85351-79.0205-26.27443-9.8535-6.77428-23.2674-5.02779-30.9558 4.12327l-27.66971 33.12089c38.49991 34.37662 87.61831 51.35565 136.25081 51.35565 69.244 0 117.8716-35.77671 117.8716-99.56953v-.90453c0-55.96967-36.6812-79.37657-101.8019-96.35511Zm598.6537-133.45445c-91.1787 0-165.1041 73.92394-165.1041 165.10693 0 91.18346 73.9254 165.10404 165.1041 165.10404 91.1835 0 165.1088-73.92058 165.1088-165.10404 0-91.18299-73.9253-165.10693-165.1088-165.10693Zm0 263.48326c-54.2857 0-98.309-44.01844-98.309-98.30898 0-54.2886 44.0233-98.30753 98.309-98.30753 54.2905 0 98.309 44.01893 98.309 98.30753 0 54.29054-44.0185 98.30898-98.309 98.30898Zm1285.4261 1.40008 52.3323-40.38592c56.9464-44.09061 84.4765-70.71145 84.4765-124.3717v-.90837c0-60.15934-44.0906-99.14759-110.6066-99.14759-57.3649 0-88.109 23.4069-119.8298 66.58722l32.2115 25.92272c9.5023 7.61578 23.1952 6.49764 31.5813-2.37581 17.1185-18.16645 31.8603-26.76085 51.423-26.76085 25.2256 0 43.1813 14.67298 43.1813 41.78312 0 27.11015-15.579 44.09013-55.5463 77.13884l-90.1346 73.85322c-10.6185 8.73248-16.8395 21.79993-16.8395 35.56502v34.2371h237.7737v-61.06964H3035.425Z"/><path id="path34" d="M3691.3976 629.63813V307.42214h111.8549c48.8124 0 92.3596 15.8434 123.9625 46.23086 31.1854 29.6861 47.2721 69.08541 47.2721 114.87714 0 45.28511-16.1456 84.68015-47.4321 114.47686-31.9147 30.68724-75.4275 46.63113-124.002 46.63113Zm36.8644-33.90213h75.091c40.2002 0 73.9692-13.79872 96.764-36.305 23.7735-23.4764 36.6248-54.61631 36.6248-90.90086 0-36.51782-13.7812-67.893-37.4248-91.24114-21.9132-21.6393-56.1712-36.26435-96.0645-36.26435h-74.9905Z" style="fill:#101e28"/><path id="text33" d="M3341.8224 629.63813V307.42214h36.3644V450.5781h185.9644V307.42214h36.3643v322.21599h-36.3643v-144.9972h-185.9644v144.9972Z" style="fill:#101e28"/></svg>